
<svg xmlns="http://www.w3.org/2000/svg" width="720" height="420" viewBox="0 0 720 420">
  <defs>
    <linearGradient id="g" x1="0" y1="0" x2="1" y2="1">
      <stop offset="0%" stop-color="#9aa3ad"/>
      <stop offset="100%" stop-color="#c9d2db"/>
    </linearGradient>
  </defs>
  <rect x="0" y="0" width="720" height="420" rx="24" fill="url(#g)" />
  <rect x="20" y="20" width="680" height="380" rx="20" fill="rgba(0,0,0,0.15)" stroke="#20262e"/>
  <!-- screen window -->
  <rect x="135" y="95" width="450" height="220" rx="8" fill="#001b1f" stroke="#07363a"/>
  <!-- keyboard dots (stylized) -->
  <g fill="#e5e7eb" opacity="0.6">
    <circle cx="80" cy="140" r="4"/>
    <circle cx="80" cy="160" r="4"/>
    <circle cx="80" cy="180" r="4"/>
    <circle cx="80" cy="200" r="4"/>
    <circle cx="80" cy="220" r="4"/>
    <circle cx="80" cy="240" r="4"/>
    <circle cx="80" cy="260" r="4"/>
    <circle cx="640" cy="140" r="4"/>
    <circle cx="640" cy="160" r="4"/>
    <circle cx="640" cy="180" r="4"/>
    <circle cx="640" cy="200" r="4"/>
    <circle cx="640" cy="220" r="4"/>
    <circle cx="640" cy="240" r="4"/>
    <circle cx="640" cy="260" r="4"/>
  </g>
</svg>
